# AST/ASF file generated using VICON BodyLanguage
# -----------------------------------------------
:version 1.10
:name VICON
:units
  mass 1.0
  length 0.45
  angle deg
:documentation
   .ast/.asf automatically generated from VICON data using
   VICON BodyBuilder and BodyLanguage model FoxedUp or BRILLIANT.MOD
:root
   order TX TY TZ RX RY RZ
   axis XYZ
   position 0 0 0  
   orientation 0 0 0 
:bonedata
  begin
     id 1 
     name lhipjoint
     direction 0.690799 -0.707083 0.151096 
     length 2.54797 
     axis 0 0 0  XYZ
  end
  begin
     id 2 
     name lfemur
     direction 0.34202 -0.939693 0  
     length 7.21646  
     axis 0 0 20  XYZ
    dof rx ry rz
    limits (-160.0 20.0)
           (-70.0 70.0)
           (-60.0 70.0)
  end
  begin
     id 3 
     name ltibia
     direction 0.34202 -0.939693 0   
     length 8.16759   
     axis 0 0 20   XYZ
    dof rx
    limits (-10.0 170.0)
  end
  begin
     id 4 
     name lfoot
     direction 0.0487203 -0.133858 0.989802   
     length 1.93375   
     axis -90 7.62852e-016 20   XYZ
    dof rx rz
    limits (-45.0 90.0)
           (-70.0 20.0)
  end
  begin
     id 5 
     name ltoes
     direction 1.53453e-011 -4.21783e-011 1   
     length 0.979747   
     axis -90 7.62852e-016 20   XYZ
    dof rx
    limits (-90.0 20.0)
  end
  begin
     id 6 
     name rhipjoint
     direction -0.694693 -0.703425 0.150315   
     length 2.56122  
     axis 0 0 0  XYZ 
  end
  begin
     id 7 
     name rfemur
     direction -0.34202 -0.939693 0   
     length 7.36786   
     axis 0 0 -20   XYZ
    dof rx ry rz
    limits (-160.0 20.0)
           (-70.0 70.0)
           (-70.0 60.0)
  end
  begin
     id 8 
     name rtibia
     direction -0.34202 -0.939693 0   
     length 8.07288   
     axis 0 0 -20   XYZ
    dof rx
    limits (-10.0 170.0)
 end
 begin
     id 9 
     name rfoot
     direction -0.0428397 -0.117701 0.992125   
     length 1.88295  
     axis -90 -7.62852e-016 -20   XYZ
    dof rx rz
    limits (-45.0 90.0)
           (-20.0 70.0)
  end
  begin
     id 10 
     name rtoes
     direction -1.53456e-011 -4.2187e-011 1   
     length 0.955578   
     axis -90 -7.62852e-016 -20   XYZ
    dof rx
    limits (-90.0 20.0)
  end
  begin
     id 11 
     name lowerback
     direction 0.0288145 0.999398 -0.0193241   
     length 1.92149   
     axis 0 0 0   XYZ
    dof rx ry rz
    limits (-20.0 45.0)
           (-30.0 30.0)
           (-30.0 30.0)
  end
  begin
     id 12 
     name upperback
     direction 0.0233784 0.998099 0.0570278   
     length 1.90435   
     axis 0 0 0   XYZ
    dof rx ry rz
    limits (-20.0 45.0)
           (-30.0 30.0)
           (-30.0 30.0)
  end
  begin
     id 13 
     name thorax
     direction 0.0096694 0.997833 0.0650817   
     length 1.9111   
     axis 0 0 0   XYZ
    dof rx ry rz
    limits (-20.0 45.0)
           (-30.0 30.0)
           (-30.0 30.0)
  end
  begin
     id 14 
     name lowerneck
     direction 0.00516803 0.999916 0.0118722   
     length 1.74664   
     axis 0 0 0   XYZ
    dof rx ry rz
    limits (-20.0 45.0)
           (-30.0 30.0)
           (-30.0 30.0)
  end
  begin
     id 15 
     name upperneck
     direction -0.0510851 0.996117 -0.071696   
     length 1.68498   
     axis 0 0 0   XYZ
    dof rx ry rz
    limits (-20.0 45.0)
           (-30.0 30.0)
           (-30.0 30.0)
  end
  begin
     id 16
     name head
     direction -0.019188 0.999436 -0.0275702  
     length 1.83483  
     axis 0 0 0   XYZ
    dof rx ry rz
    limits (-20.0 45.0)
           (-30.0 30.0)
           (-30.0 30.0)
  end
  begin
     id 17 
     name lclavicle
     direction 0.967006 0.248456 -0.0562957  
     length 3.39395  
     axis 0 0 0   XYZ
    dof ry rz
    limits (-20.0 10.0)
           (0.0 20.0)
  end
  begin
     id 18 
     name lhumerus
     direction 1 -4.48962e-011 -5.62711e-019   
     length 5.24318   
     axis 180 -30 -90   XYZ
    dof rx ry rz
    limits (-60.0 90.0)
           (-90.0 90.0)
           (-90.0 90.0)
  end
  begin
     id 19
     name lradius
     direction 1 -4.48966e-011 7.90625e-027   
     length 2.98999   
     axis 180 -30 -90   XYZ
    dof rx
    limits (-10.0 170.0)
  end
  begin
     id 20
     name lwrist
     direction 1 -4.48959e-011 1.61068e-026   
     length 1.49499   
     axis -9.31229e-015 90 90   XYZ
    dof ry
    limits (-180.0 0.0)
 end
  begin
     id 21 
     name lhand
     direction 1 -4.49017e-011 3.22136e-026   
     length 0.726745   
     axis -2.0555e-014 90 90   XYZ
    dof rx rz
    limits (-90.0 90.0)
           (-45.0 45.0)
  end
  begin
     id 22 
     name lfingers
     direction 1 -4.4898e-011 6.44272e-026   
     length 0.58592   
     axis -4.11101e-014 90 90   XYZ
    dof rx
    limits (0.0 90.0)
  end
  begin
     id 23
     name lthumb
     direction 0.707107 -6.34922e-011 0.707107   
     length 0.841268   
     axis -90 45 2.85299e-015   XYZ
    dof rx rz
    limits (-45.0 45.0)
           (-45.0 45.0)
  end
  begin
     id 24 
     name rclavicle
     direction -0.972232 0.230238 0.0419005   
     length 3.40416  
     axis 0 0 0   XYZ 
    dof ry rz
    limits (-10.0 20.0)
           (-20.0 0.0)
  end
  begin
     id 25 
     name rhumerus
     direction -1 -4.48976e-011 2.48487e-027  
     length 5.37045   
     axis 180 30 90   XYZ
    dof rx ry rz
    limits (-90.0 60.0)
           (-90.0 90.0)
           (-90.0 90.0)
  end
  begin
     id 26 
     name rradius
     direction -1 -4.48942e-011 7.87951e-027   
     length 2.92792   
     axis 180 30 90   XYZ
    dof rx
    limits (-10.0 170.0)
  end
  begin
     id 27 
     name rwrist
     direction -1 -4.48969e-011 1.61068e-026   
     length 1.46396   
     axis -9.31229e-015 -90 -90   XYZ
    dof ry
    limits (-180.0 0.0)
  end
  begin
     id 28
     name rhand
     direction -1 -4.49043e-011 3.22136e-026   
     length 0.784497   
     axis -2.0555e-014 -90 -90   XYZ
    dof rx rz
    limits (-90.0 90.0)
           (-45.0 45.0)
  end
  begin
     id 29
     name rfingers
     direction -1 -4.48823e-011 6.44272e-026   
     length 0.632482   
     axis -4.11101e-014 -90 -90   XYZ
    dof rx
    limits (0.0 90.0)
  end
  begin
     id 30
     name rthumb
     direction -0.707107 -6.34923e-011 0.707107   
     length 0.908121   
     axis -90 -45 -2.85299e-015   XYZ
    dof rx rz
    limits (-45.0 45.0)
           (-45.0 45.0)
  end
:hierarchy
  begin
    root lhipjoint rhipjoint lowerback
    lhipjoint lfemur
    lfemur ltibia
    ltibia lfoot
    lfoot ltoes
    rhipjoint rfemur
    rfemur rtibia
    rtibia rfoot
    rfoot rtoes
    lowerback upperback
    upperback thorax
    thorax lowerneck lclavicle rclavicle
    lowerneck upperneck
    upperneck head
    lclavicle lhumerus
    lhumerus lradius
    lradius lwrist
    lwrist lhand lthumb
    lhand lfingers
    rclavicle rhumerus
    rhumerus rradius
    rradius rwrist
    rwrist rhand rthumb
    rhand rfingers
  end

#!OML:ASF E:\Style6\Style6.ASF
:FULLY-SPECIFIED
:DEGREES
498
root 0.142999 18.2823 0.445802 10.3577 -3.14286 -3.49127
lowerback -6.45478 -0.592208 3.44449
upperback -3.68835 -0.992377 2.66435
thorax -0.196763 -0.524331 0.74815
lowerneck -11.2388 0.777324 2.85128
upperneck 10.1564 1.2673 -5.55982
head 4.94517 0.364678 -2.10044
rclavicle 2.4098e-014 -2.66371e-014
rhumerus 53.4086 59.0412 -33.4961
rradius 108.443
rwrist -5.11377
rhand -17.2893 19.2206
rfingers 7.12502
rthumb 8.9562 -10.5693
lclavicle 2.4098e-014 -2.66371e-014
lhumerus 33.6752 -69.8046 46.4333
lradius 61.8976
lwrist 15.6673
lhand -0.261575 13.3383
lfingers 7.12502
lthumb 25.3398 41.6748
rfemur 0 0 0
rtibia 0
rfoot 0 0
rtoes 0
lfemur -14.572 -22.5853 -11.8135
ltibia 18.9732
lfoot -7.19411 26.2149
ltoes -9.45494
499
root 0.146575 18.2852 0.44173 10.3906 -3.26148 -3.40124
lowerback -6.42545 -0.571494 3.40299
upperback -3.69377 -0.960646 2.62441
thorax -0.218077 -0.508533 0.73254
lowerneck -11.2293 0.783432 2.91459
upperneck 10.1012 1.26522 -5.57753
head 4.92683 0.365667 -2.11618
rclavicle -1.24869e-014 -4.37326e-015
rhumerus 52.1424 58.1947 -35.084
rradius 107.649
rwrist -5.74817
rhand -17.3725 18.8428
rfingers 7.12502
rthumb 8.87593 -10.9505
lclavicle -1.24869e-014 -4.37326e-015
lhumerus 31.0764 -70.5223 48.6023
lradius 62.458
lwrist 16.0336
lhand -0.101589 13.3117
lfingers 7.12502
lthumb 25.4931 41.6264
rfemur 0 0 0
rtibia 0
rfoot 0 0
rtoes 0
lfemur -14.638 -22.6197 -11.9201
ltibia 18.9707
lfoot -6.98405 26.3811
ltoes -10.2089
500
root 0.149694 18.2853 0.438276 10.411 -3.29756 -3.45739
lowerback -6.38569 -0.564744 3.49147
upperback -3.70386 -0.953935 2.64176
thorax -0.251906 -0.506793 0.701978
lowerneck -11.1789 0.778539 2.99103
upperneck 10.0468 1.25257 -5.64118
head 4.90188 0.359542 -2.1492
rclavicle -1.51985e-014 1.86858e-014
rhumerus 51.0117 57.4683 -36.453
rradius 106.794
rwrist -6.26373
rhand -17.9212 18.2548
rfingers 7.12502
rthumb 8.34641 -11.5603
lclavicle -1.51985e-014 1.86858e-014
lhumerus 29.1265 -71.3857 50.1814
lradius 63.136
lwrist 16.6748
lhand -0.292562 13.4758
lfingers 7.12502
lthumb 25.3101 41.8165
rfemur 0 0 0
rtibia 0
rfoot 0 0
rtoes 0
lfemur -14.6609 -22.6317 -11.858
ltibia 18.9462
lfoot -7.01361 26.4283
ltoes -9.8216
501
root 0.15129 18.2899 0.434609 10.3974 -3.28509 -3.55896
lowerback -6.31992 -0.574829 3.60436
upperback -3.69397 -0.970234 2.67866
thorax -0.280025 -0.516543 0.676695
lowerneck -11.1107 0.775012 2.99814
upperneck 9.93409 1.24445 -5.65172
head 4.8554 0.357269 -2.15353
rclavicle -1.41751e-015 -1.74931e-014
rhumerus 49.8205 56.6882 -37.9459
rradius 105.822
rwrist -6.54377
rhand -18.0597 17.8368
rfingers 7.12502
rthumb 8.2127 -11.9835
lclavicle -1.41751e-015 -1.74931e-014
lhumerus 26.425 -71.9984 52.6642
lradius 63.6622
lwrist 16.7927
lhand -0.234578 13.3633
lfingers 7.12502
lthumb 25.3657 41.6962
rfemur 0 0 0
rtibia 0
rfoot 0 0
rtoes 0
lfemur -14.6339 -22.5755 -11.7614
ltibia 18.923
lfoot -6.98198 26.3909
ltoes -9.7841
502
root 0.15217 18.2966 0.432912 10.3841 -3.28744 -3.60876
lowerback -6.27815 -0.570502 3.65046
upperback -3.6778 -0.965309 2.70355
thorax -0.28694 -0.514494 0.677226
lowerneck -11.1019 0.766724 2.9633
upperneck 9.87186 1.23296 -5.62297
head 4.83385 0.352915 -2.13932
rclavicle 3.50358e-015 3.57812e-015
rhumerus 48.5285 55.8036 -39.5233
rradius 104.745
rwrist -7.06578
rhand -17.5733 17.9475
rfingers 7.12502
rthumb 8.68214 -11.8539
lclavicle 3.50358e-015 3.57812e-015
lhumerus 23.4678 -72.5713 55.3862
lradius 64.2916
lwrist 16.8547
lhand -0.332732 13.3266
lfingers 7.12502
lthumb 25.2716 41.6728
rfemur 0 0 0
rtibia 0
rfoot 0 0
rtoes 0
lfemur -14.6121 -22.5856 -11.7224
ltibia 18.9505
lfoot -7.17367 26.3971
ltoes -9.28643
503
root 0.153919 18.2966 0.434022 10.4115 -3.35027 -3.60459
lowerback -6.29467 -0.529346 3.65511
upperback -3.68631 -0.91136 2.69626
thorax -0.285982 -0.487704 0.670148
lowerneck -11.066 0.740371 2.94307
upperneck 9.83295 1.1952 -5.58593
head 4.81379 0.336942 -2.12696
rclavicle -1.05249e-014 -2.0276e-014
rhumerus 47.4161 55.0308 -40.7766
rradius 103.681
rwrist -7.91489
rhand -17.4362 17.9043
rfingers 7.12502
rthumb 8.8144 -11.8916
lclavicle -1.05249e-014 -2.0276e-014
lhumerus 20.6182 -73.2599 57.9855
lradius 65.0243
lwrist 16.8875
lhand -0.636144 13.4454
lfingers 7.12502
lthumb 24.9809 41.8323
rfemur 0 0 0
rtibia 0
rfoot 0 0
rtoes 0
lfemur -14.6285 -22.5803 -11.7414
ltibia 18.9852
lfoot -7.3023 26.4532
ltoes -8.90203
504
root 0.157625 18.2899 0.435108 10.5436 -3.49853 -3.64125
lowerback -6.42684 -0.454974 3.72859
upperback -3.70522 -0.823227 2.69089
thorax -0.232279 -0.444311 0.627506
lowerneck -11.0478 0.705338 2.909
upperneck 9.77158 1.1459 -5.54204
head 4.78916 0.315174 -2.11094
rclavicle -1.2671e-014 2.74323e-014
rhumerus 46.5105 54.368 -41.7653
rradius 102.503
rwrist -8.43726
rhand -17.7732 17.8
rfingers 7.12502
rthumb 8.48918 -12.0093
lclavicle -1.2671e-014 2.74323e-014
lhumerus 17.2107 -73.689 61.1904
lradius 65.6221
lwrist 16.2833
lhand -0.671803 13.1645
lfingers 7.12502
lthumb 24.9467 41.5562
rfemur 0 0 0
rtibia 0
rfoot 0 0
rtoes 0
lfemur -14.766 -22.6295 -11.6828
ltibia 19.0275
lfoot -7.31175 26.684
ltoes -8.92622
505
root 0.163214 18.2862 0.435933 10.641 -3.59739 -3.60277
lowerback -6.53658 -0.415105 3.74237
upperback -3.71964 -0.776726 2.67594
thorax -0.186015 -0.420978 0.606263
lowerneck -11.0162 0.685647 2.8914
upperneck 9.70719 1.12268 -5.56412
head 4.76308 0.302794 -2.11623
rclavicle -1.69522e-014 -4.33351e-014
rhumerus 45.6885 53.8089 -42.6925
rradius 101.061
rwrist -8.38116
rhand -18.4782 17.6973
rfingers 7.12502
rthumb 7.80883 -12.1385
lclavicle -1.69522e-014 -4.33351e-014
lhumerus 13.8915 -74.0627 64.2051
lradius 66.3915
lwrist 15.6085
lhand -0.824619 13.0002
lfingers 7.12502
lthumb 24.8003 41.4121
rfemur 0 0 0
rtibia 0
rfoot 0 0
rtoes 0
lfemur -14.8944 -22.8103 -11.7025
ltibia 19.0749
lfoot -7.40368 26.9621
ltoes -8.67609
506
root 0.167877 18.2867 0.436491 10.5823 -3.60606 -3.58992
lowerback -6.47616 -0.415576 3.78855
upperback -3.70274 -0.776944 2.6608
thorax -0.203025 -0.421969 0.565305
lowerneck -11.0182 0.668472 2.91542
upperneck 9.73227 1.09966 -5.58941
head 4.77037 0.290506 -2.12989
rclavicle 2.59546e-016 -7.55382e-015
rhumerus 44.9876 53.3271 -43.4582
rradius 99.7655
rwrist -8.20501
rhand -19.0429 17.2882
rfingers 7.12502
rthumb 7.26376 -12.5671
lclavicle 2.59546e-016 -7.55382e-015
lhumerus 10.8158 -74.3742 66.9172
lradius 67.2669
lwrist 15.1456
lhand -0.814957 12.9385
lfingers 7.12502
lthumb 24.8096 41.3491
rfemur 0 0 0
rtibia 0
rfoot 0 0
rtoes 0
lfemur -14.8567 -22.9789 -11.7546
ltibia 19.129
lfoot -7.53115 27.1323
ltoes -8.43166
507
root 0.170979 18.2883 0.438361 10.5841 -3.62708 -3.52863
lowerback -6.48927 -0.411681 3.76228
upperback -3.70784 -0.770773 2.63942
thorax -0.200755 -0.418712 0.558249
lowerneck -11.0316 0.651333 2.90278
upperneck 9.78782 1.07952 -5.58042
head 4.78873 0.27998 -2.12685
rclavicle 7.66971e-015 -1.35174e-014
rhumerus 44.3221 52.8931 -44.0904
rradius 98.588
rwrist -8.13682
rhand -19.1496 16.7121
rfingers 7.12502
rthumb 7.16079 -13.1467
lclavicle 7.66971e-015 -1.35174e-014
lhumerus 7.48774 -74.5552 69.9821
lradius 68.0728
lwrist 14.7457
lhand -0.720227 12.7601
lfingers 7.12502
lthumb 24.9003 41.1582
rfemur 0 0 0
rtibia 0
rfoot 0 0
rtoes 0
lfemur -14.8362 -23.0745 -11.8342
ltibia 19.1042
lfoot -7.55217 27.231
ltoes -8.40783
508
root 0.172503 18.2888 0.439266 10.6888 -3.64163 -3.57428
lowerback -6.58538 -0.382604 3.81308
upperback -3.74063 -0.739259 2.65965
thorax -0.181388 -0.40355 0.552039
lowerneck -11.0014 0.630023 2.8219
upperneck 9.77606 1.05456 -5.50378
head 4.77816 0.270155 -2.0914
rclavicle -1.19612e-014 1.90833e-014
rhumerus 43.3946 52.452 -44.9199
rradius 97.0365
rwrist -7.82708
rhand -19.2152 16.5261
rfingers 7.12502
rthumb 7.09738 -13.3349
lclavicle -1.19612e-014 1.90833e-014
lhumerus 4.0284 -74.7253 73.2445
lradius 68.8889
lwrist 14.4158
lhand -0.674113 12.6616
lfingers 7.12502
lthumb 24.9445 41.0535
rfemur 0 0 0
rtibia 0
rfoot 0 0
rtoes 0
lfemur -14.9243 -23.0663 -11.7465
ltibia 19.0592
lfoot -7.5232 27.2528
ltoes -8.227
509
root 0.172922 18.2898 0.440115 10.7859 -3.67579 -3.54692
lowerback -6.7301 -0.361576 3.75413
upperback -3.74058 -0.716645 2.6722
thorax -0.0996599 -0.390259 0.598019
lowerneck -11.0262 0.623798 2.77201
upperneck 9.818 1.05447 -5.49553
head 4.79499 0.267979 -2.08095
rclavicle -8.30159e-015 5.56597e-015
rhumerus 42.4795 52.047 -45.7477
rradius 95.2926
rwrist -7.42205
rhand -19.374 16.4703
rfingers 7.12502
rthumb 6.94415 -13.3958
lclavicle -8.30159e-015 5.56597e-015
lhumerus 0.554388 -74.7511 76.4996
lradius 69.7786
lwrist 14.103
lhand -0.601341 12.6097
lfingers 7.12502
lthumb 25.0143 40.9919
rfemur 0 0 0
rtibia 0
rfoot 0 0
rtoes 0
lfemur -15.0017 -23.0837 -11.7388
ltibia 19.0081
lfoot -7.52812 27.302
ltoes -8.05214
510
root 0.173838 18.2903 0.441141 10.8543 -3.68851 -3.5247
lowerback -6.8406 -0.339124 3.70015
upperback -3.74588 -0.69002 2.68763
thorax -0.0424724 -0.375379 0.644916
lowerneck -11.0299 0.603795 2.75577
upperneck 9.87687 1.03685 -5.53224
head 4.81316 0.255705 -2.0914
rclavicle -6.38596e-015 1.11319e-014
rhumerus 41.7273 51.7347 -46.3525
rradius 93.6807
rwrist -7.03586
rhand -19.4823 16.2828
rfingers 7.12502
rthumb 6.83958 -13.5867
lclavicle -6.38596e-015 1.11319e-014
lhumerus -2.85397 -74.7387 79.6804
lradius 70.6937
lwrist 13.7654
lhand -0.722634 12.591
lfingers 7.12502
lthumb 24.898 40.9894
rfemur 0 0 0
rtibia 0
rfoot 0 0
rtoes 0
lfemur -15.0661 -23.0737 -11.7417
ltibia 18.9871
lfoot -7.45275 27.3375
ltoes -8.15193
